<?xml version="1.0" encoding="utf-8"?>
<!-- Svg Vector Icons : http://www.onlinewebfonts.com/icon -->
<!DOCTYPE svg PUBLIC "-//W3C//DTD SVG 1.1//EN" "http://www.w3.org/Graphics/SVG/1.1/DTD/svg11.dtd">
<svg version="1.1" xmlns="http://www.w3.org/2000/svg" xmlns:xlink="http://www.w3.org/1999/xlink" x="0px" y="0px" viewBox="0 0 256 256" enable-background="new 0 0 256 256" xml:space="preserve">
<metadata> Svg Vector Icons : http://www.onlinewebfonts.com/icon </metadata>
<g><g><g><path fill="#000000" d="M117.3,10.2c-27.9,2.7-53,14.5-72.7,34.3c-9.7,9.7-16.8,19.6-22.7,31.7c-5.4,11.1-8.7,21.5-10.7,34.1c-1.4,9-1.4,25.7,0,35c3.9,25.2,15.3,47.8,33,65.6c6.6,6.6,11.4,10.6,18.9,15.5c22,14.6,49.2,21.5,75,19.2c23.9-2.2,45.4-10.8,64.2-25.8c5-4,13.7-12.6,17.8-17.7c29.4-36.9,34.5-86.7,12.9-128.3c-9.6-18.6-24.6-34.8-42.5-46.1c-5.1-3.2-15.7-8.4-21.6-10.6c-6.4-2.4-16-4.8-23.2-5.9C138.5,10.1,123.6,9.6,117.3,10.2z M143.2,25.3c14.5,2.2,29.2,7.8,41.2,15.7c25.2,16.5,41.6,42.1,46.2,72.2c1.1,7.3,1.1,22.3,0,29.5c-3.6,22.9-13.4,42.4-29.5,58.5c-16.1,16.1-35.5,25.9-58.5,29.5c-7.2,1.1-22.2,1.1-29.5,0c-46-7.1-80.9-42.1-88-87.9c-1.1-7.4-1.1-22.3,0-29.6c4.6-29.9,21-55.5,46.4-72.2c13.9-9.2,29.6-14.5,48.2-16.5C123.6,24,138.5,24.6,143.2,25.3z"/><path fill="#000000" d="M146,64.1c-1.3,0.3-7.8,6.6-30,28.8c-15.7,15.6-29,29.1-29.8,30.1c-1.7,2.1-2.4,4.6-1.8,6.8c0.6,2.5,59.3,61.1,62,62c5.1,1.7,10.4-3.4,8.9-8.6c-0.4-1.4-5.4-6.6-27.2-28.5l-26.8-26.8l26.8-26.8c21.9-21.9,26.8-27.1,27.2-28.5c1-3.5-1.4-7.6-5.1-8.7C148.3,63.4,148.2,63.5,146,64.1z"/></g></g></g>
</svg>